<svg width="49" height="50" viewBox="0 0 49 50" fill="none" xmlns="http://www.w3.org/2000/svg">
<g clip-path="url(#clip0_54_201)">
<path d="M6.18484 15.2715C6.82544 7.01203 14.0406 0.835023 22.3001 1.47557C30.1273 2.08265 36.0822 8.59441 36.1389 16.3037C44.1988 19.8179 49.4503 26.4539 48.8938 33.6289C48.1249 43.5401 36.5648 50.727 23.0745 49.6807C9.58434 48.6342 -0.72822 39.751 0.0403122 29.8398C0.372102 25.562 2.71397 21.7915 6.35379 18.9717C6.14926 17.776 6.08679 16.536 6.18484 15.2715Z" fill="#FFEFB2"/>
<ellipse cx="15.6954" cy="15.5074" rx="5.5" ry="2.5" transform="rotate(4.43496 15.6954 15.5074)" fill="#FFC47C"/>
<rect x="12.7084" y="8.7561" width="2" height="2" rx="1" transform="rotate(4.43496 12.7084 8.7561)" fill="#675A5A"/>
<rect x="18.6905" y="9.22021" width="2" height="2" rx="1" transform="rotate(4.43496 18.6905 9.22021)" fill="#675A5A"/>
<path d="M34.5 10.5C16.5 9 12 7 8 9.50002L11.5 4.5L27 4L34.5 10.5Z" fill="#E9D99E"/>
<path d="M10.6541 5.92941C21.0859 -4.50353 30.8026 3.90285 34.4308 10.2523C23.2539 7.8572 15.6459 6.52983 10.6541 5.92941C9.58526 6.99839 8.50889 8.26516 7.43079 9.7522C2.06922 7.48841 -1.8614 4.42402 10.6541 5.92941Z" fill="url(#paint0_linear_54_201)"/>
<path d="M34.4308 10.2523C30.4308 3.25227 19.0308 -6.2478 7.43079 9.7522C-0.0692139 6.58551 -4.7692 1.85222 34.4308 10.2523Z" stroke="url(#paint1_linear_54_201)"/>
</g>
<defs>
<linearGradient id="paint0_linear_54_201" x1="2.33594" y1="5.62613" x2="34.4308" y2="5.62613" gradientUnits="userSpaceOnUse">
<stop stop-color="#97DDF7"/>
<stop offset="1" stop-color="#0CA7DF"/>
</linearGradient>
<linearGradient id="paint1_linear_54_201" x1="2.33594" y1="5.62613" x2="34.4308" y2="5.62613" gradientUnits="userSpaceOnUse">
<stop stop-color="#97DDF7"/>
<stop offset="1" stop-color="#0CA7DF"/>
</linearGradient>
<clipPath id="clip0_54_201">
<rect width="49" height="50" fill="white"/>
</clipPath>
</defs>
</svg>
