<svg width="48" height="44" viewBox="0 0 48 44" fill="none" xmlns="http://www.w3.org/2000/svg">
<path d="M18.1963 10.5518C19.906 10.2711 21.6876 10.124 23.5176 10.124C26.666 10.1241 29.6696 10.5637 32.4141 11.3604L38.8057 2.50195L41.9912 16.4844C45.1497 19.3257 47.0342 22.9136 47.0342 26.8135C47.034 36.0307 36.5055 43.5028 23.5176 43.5029C10.5295 43.5029 0.000217886 36.0308 0 26.8135C0 22.1747 2.66687 17.9779 6.97168 14.9531L12.5127 0L18.1963 10.5518Z" fill="white"/>
<path fill-rule="evenodd" clip-rule="evenodd" d="M21.2866 30.997C21.3517 30.523 21.6041 30.0838 22.0515 29.8138C22.4625 29.5658 22.969 29.6372 23.4647 29.6824C24.1032 29.7406 24.8614 29.6422 25.2313 30.1038C25.6419 30.6163 25.5757 31.341 25.235 31.8917C24.9116 32.4146 24.2429 32.6367 23.5832 32.7682C22.9252 32.8994 22.176 32.994 21.6686 32.6027C21.177 32.2235 21.2082 31.5682 21.2866 30.997Z" fill="#FFBDB0"/>
<path d="M11.0186 18.0461C11.8935 17.1334 14.3415 15.851 17.1347 18.0239" stroke="#675A5A" stroke-width="1.51724" stroke-linecap="round"/>
<path d="M26.0901 19.7954C26.7214 20.8909 28.7918 22.7214 32.0234 21.2793" stroke="#675A5A" stroke-width="1.51724" stroke-linecap="round"/>
<rect x="13.908" y="21.374" width="3.03448" height="3.03448" rx="1.51724" transform="rotate(11.3513 13.908 21.374)" fill="#675A5A"/>
<rect x="22.8334" y="23.166" width="3.03448" height="3.03448" rx="1.51724" transform="rotate(11.3513 22.8334 23.166)" fill="#675A5A"/>
</svg>
