<svg width="42" height="38" viewBox="0 0 42 38" fill="none" xmlns="http://www.w3.org/2000/svg">
<path d="M16.1543 8.47656C17.6619 8.23053 19.2319 8.10059 20.8447 8.10059C23.9422 8.10059 26.8818 8.58037 29.5244 9.44043L34.3955 2.68945L36.8369 13.4062C39.8656 15.9746 41.6895 19.2825 41.6895 22.8936C41.6894 31.0635 32.357 37.6865 20.8447 37.6865C9.33254 37.6865 8.35237e-05 31.0635 0 22.8936C0 18.9485 2.17599 15.3641 5.72266 12.7119L5.34863 12.3037L14.2227 0L16.1543 8.47656Z" fill="white"/>
<g transform="scale(0.875 0.863636)">
<path fill-rule="evenodd" clip-rule="evenodd" d="M21.2866 30.997C21.3517 30.523 21.6041 30.0838 22.0515 29.8138C22.4625 29.5658 22.969 29.6372 23.4647 29.6824C24.1032 29.7406 24.8614 29.6422 25.2313 30.1038C25.6419 30.6163 25.5757 31.341 25.235 31.8917C24.9116 32.4146 24.2429 32.6367 23.5832 32.7682C22.9252 32.8994 22.176 32.994 21.6686 32.6027C21.177 32.2235 21.2082 31.5682 21.2866 30.997Z" fill="#FFBDB0"/>
<path d="M11.0186 18.0461C11.8935 17.1334 14.3415 15.851 17.1347 18.0239" stroke="#675A5A" stroke-width="1.51724" stroke-linecap="round"/>
<path d="M26.0901 19.7954C26.7214 20.8909 28.7918 22.7214 32.0234 21.2793" stroke="#675A5A" stroke-width="1.51724" stroke-linecap="round"/>
</g>
</svg>
