<svg width="42" height="38" viewBox="0 0 42 38" fill="none" xmlns="http://www.w3.org/2000/svg">
<path d="M16.1543 8.47656C17.6619 8.23053 19.2319 8.10059 20.8447 8.10059C23.9422 8.10059 26.8818 8.58037 29.5244 9.44043L34.3955 2.68945L36.8369 13.4062C39.8656 15.9746 41.6895 19.2825 41.6895 22.8936C41.6894 31.0635 32.357 37.6865 20.8447 37.6865C9.33254 37.6865 8.35237e-05 31.0635 0 22.8936C0 18.9485 2.17599 15.3641 5.72266 12.7119L5.34863 12.3037L14.2227 0L16.1543 8.47656Z" fill="white"/>
<path fill-rule="evenodd" clip-rule="evenodd" d="M18.436 26.425C18.524 25.749 18.864 25.119 19.467 24.715C19.998 24.355 20.579 24.448 21.136 24.509C21.857 24.594 22.755 24.456 23.19 25.014C23.682 25.646 23.605 26.425 23.258 27.009C22.933 27.562 22.305 27.762 21.688 27.916C21.073 28.069 20.351 28.19 19.822 27.743C19.309 27.314 19.345 26.668 19.436 26.425Z" fill="#FFBDB0"/>
<rect x="11.898" y="19.434" width="2.655" height="2.655" rx="1.327" transform="rotate(11.3513 11.898 19.434)" fill="#675A5A"/>
<rect x="27.648" y="19.434" width="2.655" height="2.655" rx="1.327" transform="rotate(11.3513 27.648 19.434)" fill="#675A5A"/>
</svg>
