<svg width="48" height="44" viewBox="0 0 48 44" fill="none" xmlns="http://www.w3.org/2000/svg">
<path d="M18.1963 10.5518C19.906 10.2711 21.6876 10.124 23.5176 10.124C26.666 10.1241 29.6696 10.5637 32.4141 11.3604L38.8057 2.50195L41.9912 16.4844C45.1497 19.3257 47.0342 22.9136 47.0342 26.8135C47.034 36.0307 36.5055 43.5028 23.5176 43.5029C10.5295 43.5029 0.000217886 36.0308 0 26.8135C0 22.1747 2.66687 17.9779 6.97168 14.9531L12.5127 0L18.1963 10.5518Z" fill="white"/>
<path fill-rule="evenodd" clip-rule="evenodd" d="M21.0696 30.5983C21.1699 29.8681 21.5589 29.1914 22.2481 28.7754C22.8813 28.3932 23.6617 28.5033 24.4254 28.573C25.4091 28.6627 26.5772 28.511 27.1471 29.2222C27.7797 30.0117 27.6776 31.1283 27.1528 31.9767C26.6545 32.7823 25.6243 33.1245 24.6079 33.3272C23.5941 33.5293 22.4399 33.675 21.6582 33.0721C20.9007 32.4879 20.9488 31.4783 21.0696 30.5983Z" fill="#FFBDB0"/>
<rect x="13.5973" y="22.5029" width="3.03448" height="3.03448" rx="1.51724" transform="rotate(11.3513 13.5973 22.5029)" fill="#675A5A"/>
<rect x="31.5973" y="22.5029" width="3.03448" height="3.03448" rx="1.51724" transform="rotate(11.3513 31.5973 22.5029)" fill="#675A5A"/>
</svg>
