<svg width="293" height="167" viewBox="0 0 293 167" fill="none" xmlns="http://www.w3.org/2000/svg">
<path d="M264.649 0C276.988 3.42545e-05 286.99 6.15525 286.99 13.748C286.99 16.7474 285.428 19.5214 282.779 21.7812C288.224 24.7542 292.146 33.1143 292.146 42.9629C292.145 51.5357 289.172 58.9789 284.812 62.7246C289.173 66.4701 292.145 73.9148 292.146 82.4883C292.146 91.0615 289.172 98.5053 284.812 102.251C289.172 105.997 292.146 113.441 292.146 122.014C292.145 132.694 287.533 141.622 281.368 143.829C284.865 146.256 286.99 149.448 286.99 152.946C286.99 160.539 276.988 166.694 264.649 166.694C256.076 166.694 248.631 163.722 244.886 159.361C241.14 163.722 233.697 166.694 225.124 166.694C216.551 166.694 209.106 163.722 205.36 159.361C201.615 163.722 194.171 166.694 185.599 166.694C177.025 166.694 169.58 163.722 165.835 159.36C162.089 163.721 154.645 166.694 146.072 166.694C137.499 166.694 130.055 163.722 126.31 159.361C122.564 163.722 115.12 166.694 106.547 166.694C97.974 166.694 90.5298 163.722 86.7842 159.361C83.0384 163.722 75.5944 166.694 67.0215 166.694C58.4486 166.694 51.0045 163.722 47.2588 159.361C43.5131 163.722 36.069 166.694 27.4961 166.694C15.1578 166.694 5.15527 160.539 5.15527 152.946C5.15536 149.448 7.27951 146.256 10.7764 143.829C4.61237 141.622 5.82064e-05 132.694 0 122.014C0 113.441 2.97244 105.997 7.33301 102.251C2.97239 98.5052 0 91.0611 0 82.4883C9.69692e-06 73.9151 2.97211 66.4702 7.33301 62.7246C2.97262 58.9788 4.67209e-05 51.5354 0 42.9629C0 33.1147 3.92135 24.7545 9.36523 21.7812C6.71656 19.5215 5.15528 16.7472 5.15527 13.748C5.15527 6.15522 15.1578 0 27.4961 0C36.0689 9.69656e-06 43.513 2.97238 47.2588 7.33301C51.0046 2.97239 58.4486 0 67.0215 0C75.5943 9.69656e-06 83.0384 2.97238 86.7842 7.33301C90.5299 2.97235 97.974 7.49324e-05 106.547 0C115.12 0 122.564 2.97247 126.31 7.33301C130.055 2.97234 137.499 8.90372e-05 146.072 0C154.645 0 162.089 2.97248 165.835 7.33301C169.581 2.97219 177.026 0 185.599 0C194.171 6.61101e-05 201.615 2.97262 205.36 7.33301C209.106 2.97218 216.551 0 225.124 0C233.697 5.20067e-05 241.14 2.97262 244.886 7.33301C248.631 2.97215 256.076 0 264.649 0Z" fill="white"/>
</svg>
